<svg width="31" height="25" viewBox="0 0 31 25" fill="none" xmlns="http://www.w3.org/2000/svg">
<path id="Vector" d="M9.78108 25C21.392 25 27.7436 15.3794 27.7436 7.05096C27.7436 6.78174 27.7436 6.50868 27.732 6.23946C28.9686 5.34429 30.0359 4.23601 30.8838 2.96656C29.7287 3.47586 28.5046 3.81153 27.2513 3.96266C28.5715 3.17354 29.5603 1.93194 30.0338 0.468616C28.7935 1.20343 27.4359 1.71927 26.0206 1.99353C25.0691 0.980172 23.81 0.308851 22.4383 0.0835544C21.0666 -0.141742 19.6589 0.0915617 18.4332 0.747326C17.2075 1.40309 16.2323 2.44472 15.6586 3.71087C15.0848 4.97701 14.9446 6.39702 15.2596 7.75092C12.7497 7.62506 10.2942 6.97301 8.05241 5.83707C5.81066 4.70112 3.83271 3.10664 2.24687 1.15704C1.44179 2.54751 1.1961 4.19226 1.55968 5.75731C1.92327 7.32235 2.86886 8.69035 4.20445 9.58351C3.20362 9.54951 2.22479 9.28076 1.34691 8.79894V8.88547C1.34864 10.3421 1.85325 11.7534 2.77544 12.881C3.69764 14.0085 4.98085 14.783 6.40818 15.0736C5.86641 15.2229 5.30676 15.2973 4.74481 15.2947C4.34865 15.2959 3.95328 15.2592 3.5641 15.1851C3.96752 16.439 4.75303 17.5353 5.81061 18.3205C6.8682 19.1057 8.14489 19.5404 9.46187 19.5638C7.22459 21.321 4.46098 22.274 1.61613 22.2694C1.11485 22.2715 0.613921 22.2426 0.116211 22.1828C3.00359 24.0236 6.35683 25.0011 9.78108 25Z" fill="white"/>
</svg>
