<svg width="36" height="25" viewBox="0 0 36 25" fill="none" xmlns="http://www.w3.org/2000/svg">
<path id="Vector" d="M18.1147 0H18.3126C20.1411 0.00667319 29.4057 0.0734055 31.9037 0.745173C32.6589 0.950193 33.347 1.34981 33.8993 1.9041C34.4517 2.45839 34.8489 3.14793 35.0512 3.90382C35.2759 4.74909 35.4338 5.86796 35.5406 7.02242L35.5628 7.25376L35.6118 7.8321L35.6296 8.06344C35.7742 10.0965 35.792 12.0006 35.7942 12.4166V12.5834C35.792 13.0149 35.7719 15.048 35.6118 17.1657L35.594 17.3992L35.574 17.6306C35.4627 18.9029 35.2981 20.1664 35.0512 21.0962C34.8495 21.8524 34.4525 22.5422 33.9001 23.0966C33.3476 23.651 32.6592 24.0504 31.9037 24.2548C29.3234 24.9488 19.516 24.9978 18.1569 25H17.8411C17.1537 25 14.311 24.9867 11.3303 24.8843L10.9521 24.871L10.7586 24.8621L10.3782 24.8465L9.99785 24.8309C7.52877 24.722 5.17758 24.5462 4.0943 24.2526C3.3391 24.0484 2.65081 23.6493 2.0984 23.0953C1.54599 22.5414 1.14886 21.852 0.946779 21.0962C0.699871 20.1686 0.535265 18.9029 0.424046 17.6306L0.40625 17.397L0.388455 17.1657C0.278676 15.6584 0.217844 14.148 0.206055 12.6368L0.206055 12.3632C0.210503 11.885 0.228299 10.2322 0.348416 8.40822L0.363987 8.17911L0.37066 8.06344L0.388455 7.8321L0.437392 7.25376L0.459636 7.02242C0.566407 5.86796 0.724339 4.74686 0.949003 3.90382C1.15074 3.14763 1.54773 2.45776 2.10016 1.90338C2.65259 1.34899 3.34105 0.949578 4.09652 0.745173C5.17981 0.456002 7.53099 0.278049 10.0001 0.16683L10.3782 0.151259L10.7608 0.137913L10.9521 0.13124L11.3325 0.115669C13.4495 0.0475459 15.5673 0.00972699 17.6854 0.0022245H18.1147V0ZM14.4422 7.14032V17.8575L23.689 12.5011L14.4422 7.14032Z" fill="white"/>
</svg>
