<svg width="10" height="11" viewBox="0 0 10 11" fill="none" xmlns="http://www.w3.org/2000/svg">
<path id="Vector" d="M4.71366 0.574046C4.68909 0.625409 4.43115 1.4087 4.14863 2.30756L3.62046 3.95118L3.05544 3.96402C2.73608 3.97686 1.92539 4.01539 1.24982 4.06675C-0.420679 4.16948 -0.420679 4.28504 1.27439 5.62049C1.99909 6.19833 2.62553 6.71196 2.63781 6.789C2.66238 6.85321 2.47813 7.62366 2.22019 8.49683C1.778 10.0506 1.74115 10.5 2.08507 10.5C2.18334 10.5 2.84663 10.0634 3.55905 9.53694C4.28375 9.01046 4.92247 8.57388 4.99617 8.57388C5.06987 8.57388 5.72087 9.01046 6.43329 9.53694C8.3126 10.9366 8.47228 10.8082 7.75986 8.45831C7.52649 7.66218 7.32996 6.94309 7.32996 6.86605C7.32996 6.77616 7.94411 6.22401 8.69338 5.64617C10.4376 4.2722 10.4376 4.16948 8.6811 4.06675C7.96868 4.01539 7.15799 3.97686 6.87548 3.96402L6.37187 3.95118L5.83142 2.24335C5.37694 0.843703 5.24183 0.535523 5.03302 0.509842C4.88562 0.48416 4.75051 0.509842 4.71366 0.574046Z" fill="yellow"/>
</svg>
