<svg width="10" height="11" viewBox="0 0 10 11" fill="none" xmlns="http://www.w3.org/2000/svg">
<g id="Group 2639">
<path id="Vector" d="M8.75 0.5H1.25C0.918479 0.5 0.600537 0.631696 0.366117 0.866117C0.131696 1.10054 0 1.41848 0 1.75L0 9.25C0 9.58152 0.131696 9.89946 0.366117 10.1339C0.600537 10.3683 0.918479 10.5 1.25 10.5H8.75C9.08152 10.5 9.39946 10.3683 9.63388 10.1339C9.8683 9.89946 10 9.58152 10 9.25V1.75C10 1.41848 9.8683 1.10054 9.63388 0.866117C9.39946 0.631696 9.08152 0.5 8.75 0.5ZM0.625 2.91062C0.625 2.615 0.905 2.375 1.25 2.375H8.75C9.095 2.375 9.375 2.615 9.375 2.91062V9.33937C9.375 9.635 9.095 9.875 8.75 9.875H1.25C0.905 9.875 0.625 9.635 0.625 9.33937V2.91062Z" fill="white"/>
<path id="Vector_2" d="M4.0625 4.875C4.22826 4.875 4.38723 4.80915 4.50444 4.69194C4.62165 4.57473 4.6875 4.41576 4.6875 4.25C4.6875 4.08424 4.62165 3.92527 4.50444 3.80806C4.38723 3.69085 4.22826 3.625 4.0625 3.625C3.89674 3.625 3.73777 3.69085 3.62056 3.80806C3.50335 3.92527 3.4375 4.08424 3.4375 4.25C3.4375 4.41576 3.50335 4.57473 3.62056 4.69194C3.73777 4.80915 3.89674 4.875 4.0625 4.875ZM5.9375 4.875C6.10326 4.875 6.26223 4.80915 6.37944 4.69194C6.49665 4.57473 6.5625 4.41576 6.5625 4.25C6.5625 4.08424 6.49665 3.92527 6.37944 3.80806C6.26223 3.69085 6.10326 3.625 5.9375 3.625C5.77174 3.625 5.61277 3.69085 5.49556 3.80806C5.37835 3.92527 5.3125 4.08424 5.3125 4.25C5.3125 4.41576 5.37835 4.57473 5.49556 4.69194C5.61277 4.80915 5.77174 4.875 5.9375 4.875ZM7.8125 4.875C7.97826 4.875 8.13723 4.80915 8.25444 4.69194C8.37165 4.57473 8.4375 4.41576 8.4375 4.25C8.4375 4.08424 8.37165 3.92527 8.25444 3.80806C8.13723 3.69085 7.97826 3.625 7.8125 3.625C7.64674 3.625 7.48777 3.69085 7.37056 3.80806C7.25335 3.92527 7.1875 4.08424 7.1875 4.25C7.1875 4.41576 7.25335 4.57473 7.37056 4.69194C7.48777 4.80915 7.64674 4.875 7.8125 4.875ZM2.1875 6.75C2.35326 6.75 2.51223 6.68415 2.62944 6.56694C2.74665 6.44973 2.8125 6.29076 2.8125 6.125C2.8125 5.95924 2.74665 5.80027 2.62944 5.68306C2.51223 5.56585 2.35326 5.5 2.1875 5.5C2.02174 5.5 1.86277 5.56585 1.74556 5.68306C1.62835 5.80027 1.5625 5.95924 1.5625 6.125C1.5625 6.29076 1.62835 6.44973 1.74556 6.56694C1.86277 6.68415 2.02174 6.75 2.1875 6.75ZM4.0625 6.75C4.22826 6.75 4.38723 6.68415 4.50444 6.56694C4.62165 6.44973 4.6875 6.29076 4.6875 6.125C4.6875 5.95924 4.62165 5.80027 4.50444 5.68306C4.38723 5.56585 4.22826 5.5 4.0625 5.5C3.89674 5.5 3.73777 5.56585 3.62056 5.68306C3.50335 5.80027 3.4375 5.95924 3.4375 6.125C3.4375 6.29076 3.50335 6.44973 3.62056 6.56694C3.73777 6.68415 3.89674 6.75 4.0625 6.75ZM5.9375 6.75C6.10326 6.75 6.26223 6.68415 6.37944 6.56694C6.49665 6.44973 6.5625 6.29076 6.5625 6.125C6.5625 5.95924 6.49665 5.80027 6.37944 5.68306C6.26223 5.56585 6.10326 5.5 5.9375 5.5C5.77174 5.5 5.61277 5.56585 5.49556 5.68306C5.37835 5.80027 5.3125 5.95924 5.3125 6.125C5.3125 6.29076 5.37835 6.44973 5.49556 6.56694C5.61277 6.68415 5.77174 6.75 5.9375 6.75ZM7.8125 6.75C7.97826 6.75 8.13723 6.68415 8.25444 6.56694C8.37165 6.44973 8.4375 6.29076 8.4375 6.125C8.4375 5.95924 8.37165 5.80027 8.25444 5.68306C8.13723 5.56585 7.97826 5.5 7.8125 5.5C7.64674 5.5 7.48777 5.56585 7.37056 5.68306C7.25335 5.80027 7.1875 5.95924 7.1875 6.125C7.1875 6.29076 7.25335 6.44973 7.37056 6.56694C7.48777 6.68415 7.64674 6.75 7.8125 6.75ZM2.1875 8.625C2.35326 8.625 2.51223 8.55915 2.62944 8.44194C2.74665 8.32473 2.8125 8.16576 2.8125 8C2.8125 7.83424 2.74665 7.67527 2.62944 7.55806C2.51223 7.44085 2.35326 7.375 2.1875 7.375C2.02174 7.375 1.86277 7.44085 1.74556 7.55806C1.62835 7.67527 1.5625 7.83424 1.5625 8C1.5625 8.16576 1.62835 8.32473 1.74556 8.44194C1.86277 8.55915 2.02174 8.625 2.1875 8.625ZM4.0625 8.625C4.22826 8.625 4.38723 8.55915 4.50444 8.44194C4.62165 8.32473 4.6875 8.16576 4.6875 8C4.6875 7.83424 4.62165 7.67527 4.50444 7.55806C4.38723 7.44085 4.22826 7.375 4.0625 7.375C3.89674 7.375 3.73777 7.44085 3.62056 7.55806C3.50335 7.67527 3.4375 7.83424 3.4375 8C3.4375 8.16576 3.50335 8.32473 3.62056 8.44194C3.73777 8.55915 3.89674 8.625 4.0625 8.625ZM5.9375 8.625C6.10326 8.625 6.26223 8.55915 6.37944 8.44194C6.49665 8.32473 6.5625 8.16576 6.5625 8C6.5625 7.83424 6.49665 7.67527 6.37944 7.55806C6.26223 7.44085 6.10326 7.375 5.9375 7.375C5.77174 7.375 5.61277 7.44085 5.49556 7.55806C5.37835 7.67527 5.3125 7.83424 5.3125 8C5.3125 8.16576 5.37835 8.32473 5.49556 8.44194C5.61277 8.55915 5.77174 8.625 5.9375 8.625Z" fill="white"/>
</g>
</svg>
