<svg width="40" height="30" viewBox="0 0 40 30" fill="none" xmlns="http://www.w3.org/2000/svg">
<path id="Vector" d="M2.15208 0.0101422C1.48927 0.116193 0.895726 0.481203 0.502032 1.02487C0.108339 1.56855 -0.0532569 2.24634 0.0527938 2.90916C0.158845 3.57198 0.523855 4.16552 1.06753 4.55921C1.6112 4.95291 2.289 5.1145 2.95181 5.00845H10.4493L10.8991 6.25803L12.9484 12.5059L14.9977 18.7538C15.1977 19.4036 16.0474 20.0034 16.6972 20.0034H34.1913C34.891 20.0034 35.6907 19.4036 35.8907 18.7538L39.9393 6.25803C40.1392 5.60825 39.8393 5.00845 39.1396 5.00845H16.9471L15.0477 1.40967C14.8454 0.996605 14.5331 0.64738 14.145 0.400448C13.757 0.153516 13.3083 0.0184569 12.8485 0.0101422L2.85185 0.0101422C2.7022 -0.00338072 2.55164 -0.00338072 2.402 0.0101422C2.30212 0.00413878 2.20198 0.00413878 2.1021 0.0101422L2.15208 0.0101422ZM17.9467 25.0017C16.5472 25.0017 15.4476 26.1013 15.4476 27.5008C15.4476 28.9004 16.5472 30 17.9467 30C19.3463 30 20.4459 28.9004 20.4459 27.5008C20.4459 26.1013 19.3463 25.0017 17.9467 25.0017ZM32.9417 25.0017C31.5421 25.0017 30.4425 26.1013 30.4425 27.5008C30.4425 28.9004 31.5421 30 32.9417 30C34.3412 30 35.4408 28.9004 35.4408 27.5008C35.4408 26.1013 34.3412 25.0017 32.9417 25.0017Z" fill="#6BBD5B"/>
</svg>
