<svg width="10" height="11" viewBox="0 0 10 11" fill="none" xmlns="http://www.w3.org/2000/svg">
<g id="Group">
<path id="Vector" d="M5 10.5C2.24186 10.5 0 8.25814 0 5.5C0 2.74186 2.24186 0.5 5 0.5C7.75814 0.5 10 2.74186 10 5.5C10 8.25814 7.75814 10.5 5 10.5ZM5 1.19767C2.62791 1.19767 0.697674 3.12791 0.697674 5.5C0.697674 7.87209 2.62791 9.80233 5 9.80233C7.37209 9.80233 9.30233 7.87209 9.30233 5.5C9.30233 3.12791 7.37209 1.19767 5 1.19767Z" fill="white"/>
<path id="Vector_2" d="M6.72526 7.32792C6.66479 7.32792 6.60433 7.31396 6.54852 7.27675L5.10665 6.41629C4.74851 6.20234 4.4834 5.73257 4.4834 5.31861V3.41164C4.4834 3.22094 4.64154 3.06281 4.83224 3.06281C5.02293 3.06281 5.18107 3.22094 5.18107 3.41164V5.31861C5.18107 5.48606 5.32061 5.73257 5.46479 5.81629L6.90665 6.67675C7.0741 6.77443 7.12526 6.98838 7.02758 7.15582C6.95782 7.26745 6.84154 7.32792 6.72526 7.32792Z" fill="white"/>
</g>
</svg>
