<svg width="20" height="20" viewBox="0 0 20 20" fill="none" xmlns="http://www.w3.org/2000/svg">
<path id="Vector" d="M14.6781 12.9289C15.8884 11.2772 16.4305 9.22928 16.1959 7.19497C15.9613 5.16066 14.9673 3.28995 13.4128 1.9571C11.8583 0.62425 9.85794 -0.0724423 7.81187 0.00640434C5.76581 0.085251 3.82496 0.933822 2.37762 2.38235C0.930277 3.83088 0.0831823 5.77253 0.00580795 7.81886C-0.0715664 9.8652 0.626485 11.8653 1.96031 13.419C3.29413 14.9727 5.16536 15.9654 7.19963 16.1986C9.23389 16.4318 11.2812 15.8882 12.9319 14.6765H12.9306C12.9681 14.7265 13.0081 14.774 13.0531 14.8203L17.8654 19.6331C18.0998 19.8677 18.4178 19.9995 18.7493 19.9996C19.0809 19.9997 19.399 19.8681 19.6335 19.6337C19.8681 19.3993 19.9999 19.0813 20 18.7497C20.0001 18.4181 19.8685 18.1 19.6341 17.8655L14.8218 13.0527C14.7771 13.0074 14.7291 12.9669 14.6781 12.9289ZM15.0006 8.12359C15.0006 9.02649 14.8227 9.92054 14.4773 10.7547C14.1318 11.5889 13.6254 12.3468 12.987 12.9853C12.3486 13.6237 11.5907 14.1302 10.7567 14.4757C9.92258 14.8212 9.02862 14.999 8.12582 14.999C7.22301 14.999 6.32905 14.8212 5.49497 14.4757C4.66089 14.1302 3.90302 13.6237 3.26464 12.9853C2.62626 12.3468 2.11987 11.5889 1.77438 10.7547C1.4289 9.92054 1.25108 9.02649 1.25108 8.12359C1.25108 6.30011 1.97538 4.55131 3.26464 3.26191C4.55391 1.97252 6.30252 1.24814 8.12582 1.24814C9.94911 1.24814 11.6977 1.97252 12.987 3.26191C14.2763 4.55131 15.0006 6.30011 15.0006 8.12359Z" fill="#6BBD5B"/>
</svg>
